<svg width="33" height="32" viewBox="0 0 33 32" fill="none" xmlns="http://www.w3.org/2000/svg">
<circle cx="16.5" cy="16" r="16" fill="#FFFAE9"/>
<g clip-path="url(#clip0_4_471)">
<path d="M18.1201 24.3844C18.1201 22.9636 16.9643 21.8119 15.5383 21.8119C14.1123 21.8119 12.9565 22.9636 12.9565 24.3844C12.9565 25.8053 14.1123 26.957 15.5383 26.957C16.9643 26.957 18.1201 25.8053 18.1201 24.3844Z" fill="#F7C92B"/>
<path d="M15.5382 21.8119C15.2772 21.8119 15.0253 21.8508 14.7878 21.9226C15.8477 22.2429 16.6193 23.2236 16.6193 24.3844C16.6193 25.5451 15.8477 26.526 14.7878 26.8463C15.0253 26.9181 15.2772 26.957 15.5382 26.957C16.9642 26.957 18.12 25.8053 18.12 24.3844C18.12 22.9636 16.9642 21.8119 15.5382 21.8119Z" fill="#F2B51D"/>
<path d="M15.8398 9.3699C15.0105 9.5359 14.2034 9.00081 14.0368 8.1745C13.8701 7.34836 14.4073 6.54404 15.2364 6.37804C16.0655 6.21204 16.8727 6.74713 17.0394 7.57344C17.2059 8.39958 16.6689 9.2039 15.8398 9.3699Z" fill="#F7C92B"/>
<path d="M17.0395 7.57344C16.8729 6.74713 16.0656 6.21204 15.2365 6.37804C15.1593 6.39348 15.0848 6.41463 15.013 6.44047C15.497 6.61705 15.8803 7.03297 15.9893 7.57344C16.1405 8.32271 15.7126 9.05402 15.0132 9.30746C15.2691 9.40079 15.5532 9.42731 15.8399 9.3699C16.669 9.2039 17.206 8.39958 17.0395 7.57344Z" fill="#F2B51D"/>
<path d="M21.9328 23.9539H9.14344C7.999 23.9539 7.07135 23.0296 7.07135 21.8894C7.07135 21.2581 7.35809 20.6608 7.85118 20.2645L8.26203 19.9342C9.21239 19.1705 9.76501 18.0192 9.76501 16.8027V14.6329C9.76501 11.4316 12.3694 8.83649 15.5822 8.83649C18.7948 8.83649 21.3994 11.4316 21.3994 14.6329V16.8428C21.3994 18.0363 21.9313 19.1685 22.8514 19.9328L23.2515 20.2652C23.7289 20.6618 24.0049 21.2493 24.0049 21.8686V21.8894C24.0049 23.0296 23.0772 23.9539 21.9328 23.9539Z" fill="#F7E249"/>
<path d="M23.2514 20.2652L22.8513 19.9328C21.9312 19.1683 21.3993 18.0363 21.3993 16.8426V14.6327C21.3993 11.4315 18.7948 8.8363 15.5821 8.8363C15.0128 8.8363 14.4629 8.91821 13.9431 9.07011C16.3577 9.77524 18.1212 11.9987 18.1212 14.6327V16.8426C18.1212 18.0363 18.6532 19.1683 19.5733 19.9328L19.9735 20.2652C20.4508 20.6618 20.7269 21.2492 20.7269 21.8686V21.8894C20.7269 23.0296 19.7993 23.9539 18.6548 23.9539H21.9329C23.0772 23.9539 24.0048 23.0296 24.0048 21.8894V21.8686C24.0048 21.2492 23.7289 20.6618 23.2514 20.2652Z" fill="#F7C92B"/>
<path d="M25.9964 9.93184C25.9964 7.18436 23.7612 4.95703 21.0038 4.95703C18.2464 4.95703 16.011 7.18436 16.011 9.93184C16.011 12.6793 18.2464 14.9066 21.0038 14.9066C23.7612 14.9066 25.9964 12.6793 25.9964 9.93184Z" fill="#F2545D"/>
<path d="M22.3434 5.13849C23.6167 6.03999 24.4473 7.52158 24.4473 9.19652C24.4473 11.944 22.2121 14.1713 19.4547 14.1713C18.9905 14.1713 18.5413 14.108 18.115 13.9899C18.9303 14.5673 19.9273 14.9067 21.0037 14.9067C23.761 14.9067 25.9964 12.6793 25.9964 9.93185C25.9964 7.64679 24.4502 5.72192 22.3434 5.13849Z" fill="#CC474E"/>
<path d="M21.0039 12.2553C20.8114 12.2553 20.6553 12.0999 20.6553 11.9081V8.55819L20.5253 8.67652C20.383 8.80576 20.1625 8.79569 20.0329 8.65386C19.9032 8.5122 19.9133 8.29249 20.0556 8.16325L20.769 7.51502C20.8711 7.42237 21.0182 7.39837 21.1447 7.45393C21.271 7.50948 21.3524 7.63403 21.3524 7.77166V11.9081C21.3524 12.0999 21.1963 12.2553 21.0039 12.2553Z" fill="#E3FAFF"/>
</g>
<defs>
<clipPath id="clip0_4_471">
<rect width="22" height="22" fill="white" transform="translate(5.5 5)"/>
</clipPath>
</defs>
</svg>
