<svg width="13" height="12" viewBox="0 0 13 12" fill="none" xmlns="http://www.w3.org/2000/svg">
<path d="M7.66016 6.25L11.2812 2.66406L12.0195 1.92578C12.125 1.82031 12.125 1.64453 12.0195 1.50391L11.2461 0.730469C11.1055 0.625 10.9297 0.625 10.8242 0.730469L6.5 5.08984L2.14062 0.730469C2.03516 0.625 1.85938 0.625 1.71875 0.730469L0.945312 1.50391C0.839844 1.64453 0.839844 1.82031 0.945312 1.92578L5.30469 6.25L0.945312 10.6094C0.839844 10.7148 0.839844 10.8906 0.945312 11.0312L1.71875 11.8047C1.85938 11.9102 2.03516 11.9102 2.14062 11.8047L6.5 7.44531L10.0859 11.0664L10.8242 11.8047C10.9297 11.9102 11.1055 11.9102 11.2461 11.8047L12.0195 11.0312C12.125 10.8906 12.125 10.7148 12.0195 10.6094L7.66016 6.25Z" fill="#828282"/>
</svg>
