<svg width="33" height="32" viewBox="0 0 33 32" fill="none" xmlns="http://www.w3.org/2000/svg">
<circle cx="16.5" cy="16" r="16" fill="#FFFAE9"/>
<path d="M21.1616 14.3123L20.9355 12.8014C20.8235 12.0525 19.9329 11.7176 19.3552 12.2069L18.496 12.9347C18.1407 13.2357 17.597 13.1227 17.391 12.7051L16.0226 9.93024C15.8336 9.54704 15.2872 9.54704 15.0981 9.93024L13.7297 12.7051C13.5237 13.1227 12.9801 13.2357 12.6247 12.9347L11.7655 12.2069C11.1878 11.7176 10.2972 12.0525 10.1852 12.8014L9.95914 14.3123C9.88836 14.7856 9.38218 15.0576 8.94848 14.8554L7.09173 13.99C6.24329 13.5946 5.38331 14.5136 5.83419 15.334L8.95655 21.0152H22.1643L25.2867 15.334C25.7375 14.5136 24.8776 13.5946 24.0291 13.99L22.1722 14.8554C21.7385 15.0576 21.2324 14.7856 21.1616 14.3123Z" fill="url(#paint0_linear_1_298)"/>
<path d="M20.6767 14.9204L20.4702 13.5467C20.3679 12.8659 19.5544 12.5613 19.0266 13.0063L18.2418 13.6679C17.9172 13.9416 17.4206 13.8389 17.2325 13.4591L15.9825 10.9364C15.8099 10.588 15.3107 10.588 15.1381 10.9364L13.8881 13.4591C13.6999 13.8389 13.2033 13.9416 12.8787 13.6679L12.094 13.0063C11.5662 12.5614 10.7527 12.8659 10.6504 13.5468L10.4439 14.9205C10.3793 15.3507 9.91693 15.598 9.52075 15.4142L7.82474 14.6274C7.04973 14.2679 6.26423 15.1034 6.67602 15.8493L9.52808 21.0145H21.5925L24.4446 15.8493C24.8564 15.1034 24.0709 14.2679 23.2959 14.6274L21.5999 15.4142C21.2037 15.598 20.7414 15.3507 20.6767 14.9204Z" fill="url(#paint1_linear_1_298)"/>
<path d="M20.0858 15.6539L19.9032 14.4457C19.8126 13.847 19.0931 13.5791 18.6263 13.9704L17.9321 14.5523C17.645 14.7931 17.2057 14.7027 17.0393 14.3687L15.9337 12.1499C15.781 11.8434 15.3395 11.8434 15.1868 12.1499L14.0811 14.3687C13.9147 14.7027 13.4754 14.7931 13.1883 14.5523L12.4941 13.9704C12.0272 13.5791 11.3076 13.8469 11.2172 14.4457L11.0346 15.6539C10.9773 16.0324 10.5684 16.2498 10.218 16.0882L8.71778 15.3961C8.03225 15.0799 7.33744 15.8148 7.7017 16.4708L10.2245 21.0136H20.8959L23.4186 16.4708C23.7829 15.8148 23.0881 15.0799 22.4025 15.3961L20.9024 16.0882C20.5519 16.2498 20.143 16.0324 20.0858 15.6539Z" fill="url(#paint2_linear_1_298)"/>
<path d="M22.4764 21.9552H8.64416C8.07947 21.9552 7.6217 21.4974 7.6217 20.9327C7.6217 20.368 8.07947 19.9103 8.64416 19.9103H22.4764C23.041 19.9103 23.4988 20.368 23.4988 20.9327C23.4988 21.4974 23.041 21.9552 22.4764 21.9552Z" fill="url(#paint3_linear_1_298)"/>
<path d="M22.4764 24.0002H8.64413C8.07944 24.0002 7.62167 23.5425 7.62167 22.9778C7.62167 22.4131 8.07944 21.9553 8.64413 21.9553H22.4763C23.041 21.9553 23.4988 22.4131 23.4988 22.9778C23.4988 23.5425 23.041 24.0002 22.4764 24.0002Z" fill="url(#paint4_linear_1_298)"/>
<path d="M17.2028 9.61908C17.2157 10.5261 16.4908 11.2719 15.5836 11.2848C14.6764 11.2977 13.9305 10.573 13.9176 9.66597C13.9046 8.75898 14.6295 8.0132 15.5368 8.00028C16.444 7.98735 17.1898 8.71209 17.2028 9.61908Z" fill="url(#paint5_linear_1_298)"/>
<path d="M16.9311 9.62279C16.9419 10.3798 16.3368 11.0022 15.5797 11.013C14.8226 11.0238 14.2001 10.4189 14.1893 9.66187C14.1785 8.9049 14.7835 8.28249 15.5406 8.27169C16.2978 8.26093 16.9203 8.86582 16.9311 9.62279Z" fill="url(#paint6_linear_1_298)"/>
<path d="M16.2739 8.16222C16.3879 8.38169 16.4539 8.63031 16.4577 8.89437C16.4706 9.80136 15.7457 10.5471 14.8385 10.5601C14.5743 10.5639 14.3239 10.505 14.1012 10.3974C14.3786 10.9317 14.9405 11.2932 15.5835 11.2841C16.4907 11.2711 17.2157 10.5254 17.2027 9.61833C17.1935 8.97548 16.816 8.4242 16.2739 8.16222Z" fill="url(#paint7_linear_1_298)"/>
<path d="M12.5158 11.9667C12.5287 12.8738 11.8038 13.6195 10.8966 13.6325C9.98939 13.6454 9.24344 12.9206 9.23052 12.0136C9.21759 11.1066 9.9425 10.3609 10.8497 10.3479C11.7569 10.3349 12.5028 11.0597 12.5158 11.9667Z" fill="url(#paint8_linear_1_298)"/>
<path d="M12.244 11.9704C12.2548 12.7274 11.6497 13.3498 10.8926 13.3606C10.1355 13.3714 9.51296 12.7665 9.50216 12.0095C9.49136 11.2526 10.0964 10.6301 10.8535 10.6193C11.6107 10.6085 12.2332 11.2135 12.244 11.9704Z" fill="url(#paint9_linear_1_298)"/>
<path d="M11.5869 10.5099C11.7008 10.7293 11.7668 10.978 11.7706 11.242C11.7835 12.149 11.0586 12.8948 10.1514 12.9078C9.88727 12.9115 9.63687 12.8526 9.41418 12.745C9.69156 13.2793 10.2535 13.6409 10.8965 13.6317C11.8037 13.6188 12.5286 12.873 12.5157 11.966C12.5065 11.3231 12.129 10.7719 11.5869 10.5099Z" fill="url(#paint10_linear_1_298)"/>
<path d="M21.8899 11.9667C21.9028 12.8738 21.1779 13.6195 20.2707 13.6325C19.3635 13.6454 18.6176 12.9206 18.6046 12.0136C18.5917 11.1066 19.3166 10.3609 20.2238 10.3479C21.131 10.3349 21.8769 11.0597 21.8899 11.9667Z" fill="url(#paint11_linear_1_298)"/>
<path d="M21.6183 11.9704C21.6291 12.7274 21.0241 13.3498 20.267 13.3606C19.5098 13.3714 18.8873 12.7665 18.8765 12.0095C18.8657 11.2526 19.4707 10.6301 20.2279 10.6193C20.985 10.6085 21.6075 11.2135 21.6183 11.9704Z" fill="url(#paint12_linear_1_298)"/>
<path d="M20.9612 10.5099C21.0752 10.7293 21.1412 10.978 21.145 11.242C21.1579 12.149 20.433 12.8948 19.5258 12.9078C19.2616 12.9115 19.0112 12.8526 18.7885 12.745C19.0659 13.2793 19.6278 13.6409 20.2709 13.6317C21.178 13.6188 21.903 12.873 21.89 11.966C21.8808 11.3231 21.5033 10.7719 20.9612 10.5099Z" fill="url(#paint13_linear_1_298)"/>
<path d="M7.78553 14.5304C7.79845 15.4374 7.07354 16.1832 6.16633 16.1961C5.25916 16.2091 4.51322 15.4843 4.50029 14.5773C4.48737 13.6703 5.21228 12.9245 6.11949 12.9116C7.0267 12.8986 7.7726 13.6234 7.78553 14.5304Z" fill="url(#paint14_linear_1_298)"/>
<path d="M7.51374 14.5342C7.52454 15.2912 6.91951 15.9136 6.16237 15.9244C5.40524 15.9352 4.78273 15.3303 4.77193 14.5733C4.76113 13.8163 5.36616 13.1939 6.12329 13.1831C6.88043 13.1723 7.50293 13.7772 7.51374 14.5342Z" fill="url(#paint15_linear_1_298)"/>
<path d="M6.85665 13.0745C6.9706 13.2939 7.03661 13.5426 7.04038 13.8066C7.05331 14.7136 6.3284 15.4594 5.42119 15.4724C5.15704 15.4761 4.90664 15.4172 4.68396 15.3096C4.96134 15.8439 5.52325 16.2055 6.16627 16.1963C7.07344 16.1834 7.79839 15.4376 7.78546 14.5306C7.77627 13.8877 7.39878 13.3364 6.85665 13.0745Z" fill="url(#paint16_linear_1_298)"/>
<path d="M26.6206 14.5306C26.6335 15.4376 25.9086 16.1833 25.0014 16.1963C24.0942 16.2092 23.3483 15.4844 23.3353 14.5774C23.3224 13.6704 24.0473 12.9247 24.9545 12.9117C25.8617 12.8987 26.6076 13.6236 26.6206 14.5306Z" fill="url(#paint17_linear_1_298)"/>
<path d="M26.3488 14.5344C26.3596 15.2913 25.7546 15.9137 24.9975 15.9245C24.2403 15.9353 23.6178 15.3304 23.607 14.5734C23.5962 13.8165 24.2012 13.1941 24.9584 13.1833C25.7155 13.1725 26.338 13.7774 26.3488 14.5344Z" fill="url(#paint18_linear_1_298)"/>
<path d="M25.6917 13.0746C25.8056 13.2941 25.8716 13.5427 25.8754 13.8068C25.8883 14.7138 25.1634 15.4595 24.2562 15.4725C23.9921 15.4763 23.7417 15.4174 23.519 15.3098C23.7964 15.8441 24.3583 16.2056 25.0013 16.1965C25.9085 16.1835 26.6334 15.4378 26.6205 14.5307C26.6113 13.8879 26.2338 13.3366 25.6917 13.0746Z" fill="url(#paint19_linear_1_298)"/>
<path d="M15.2198 13.5016L13.3296 16.2336C13.2315 16.3753 13.2315 16.563 13.3296 16.7048L15.2198 19.4367C15.3845 19.6747 15.7362 19.6747 15.9009 19.4367L17.7911 16.7048C17.8892 16.563 17.8892 16.3754 17.7911 16.2336L15.9009 13.5016C15.7362 13.2637 15.3845 13.2637 15.2198 13.5016Z" fill="url(#paint20_linear_1_298)"/>
<path d="M15.2621 13.8702L13.6065 16.263C13.5205 16.3871 13.5205 16.5515 13.6065 16.6757L15.2621 19.0685C15.4063 19.2769 15.7144 19.2769 15.8585 19.0685L17.5141 16.6757C17.6 16.5516 17.6 16.3872 17.5141 16.263L15.8585 13.8702C15.7143 13.6618 15.4063 13.6618 15.2621 13.8702Z" fill="url(#paint21_linear_1_298)"/>
<path d="M16.0237 14.109C15.9041 13.9361 15.6477 13.9133 15.5132 14.0749C15.5062 14.0833 15.4995 14.0921 15.4931 14.1014L13.9525 16.328C13.7974 16.5522 13.7974 16.8489 13.9525 17.0731L15.4224 19.1975C15.5724 19.2589 15.7565 19.2163 15.8586 19.0688L17.5142 16.676C17.6001 16.5518 17.6001 16.3874 17.5142 16.2633L16.0237 14.109Z" fill="url(#paint22_linear_1_298)"/>
<path d="M15.8585 13.8698C15.7763 13.751 15.6408 13.7002 15.5128 13.7169V19.2212C15.6408 19.2378 15.7763 19.187 15.8585 19.0682L17.5141 16.6754C17.6 16.5512 17.6 16.3868 17.5141 16.2627L15.8585 13.8698Z" fill="url(#paint23_linear_1_298)"/>
<path d="M15.2621 19.0688C15.4064 19.2772 15.7144 19.2772 15.8586 19.0688L17.5142 16.676C17.5571 16.6139 17.5787 16.5418 17.5787 16.4696H13.5421C13.5421 16.5418 13.5636 16.6139 13.6066 16.676L15.2621 19.0688Z" fill="url(#paint24_linear_1_298)"/>
<defs>
<linearGradient id="paint0_linear_1_298" x1="12.4431" y1="10.0975" x2="18.8195" y2="20.4678" gradientUnits="userSpaceOnUse">
<stop stop-color="#FFD945"/>
<stop offset="0.3043" stop-color="#FFCD3E"/>
<stop offset="0.8558" stop-color="#FFAD2B"/>
<stop offset="1" stop-color="#FFA325"/>
</linearGradient>
<linearGradient id="paint1_linear_1_298" x1="18.5471" y1="19.9167" x2="10.294" y2="9.76389" gradientUnits="userSpaceOnUse">
<stop stop-color="#FFD945"/>
<stop offset="0.3043" stop-color="#FFCD3E"/>
<stop offset="0.8558" stop-color="#FFAD2B"/>
<stop offset="1" stop-color="#FFA325"/>
</linearGradient>
<linearGradient id="paint2_linear_1_298" x1="11.8011" y1="13.3278" x2="17.264" y2="18.7907" gradientUnits="userSpaceOnUse">
<stop stop-color="#FFD945"/>
<stop offset="0.3043" stop-color="#FFCD3E"/>
<stop offset="0.8558" stop-color="#FFAD2B"/>
<stop offset="1" stop-color="#FFA325"/>
</linearGradient>
<linearGradient id="paint3_linear_1_298" x1="15.5603" y1="19.783" x2="15.5603" y2="22.0264" gradientUnits="userSpaceOnUse">
<stop stop-color="#FFD945"/>
<stop offset="0.3043" stop-color="#FFCD3E"/>
<stop offset="0.8558" stop-color="#FFAD2B"/>
<stop offset="1" stop-color="#FFA325"/>
</linearGradient>
<linearGradient id="paint4_linear_1_298" x1="15.5602" y1="21.8281" x2="15.5602" y2="24.0714" gradientUnits="userSpaceOnUse">
<stop stop-color="#FFD945"/>
<stop offset="0.3043" stop-color="#FFCD3E"/>
<stop offset="0.8558" stop-color="#FFAD2B"/>
<stop offset="1" stop-color="#FFA325"/>
</linearGradient>
<linearGradient id="paint5_linear_1_298" x1="14.965" y1="8.8396" x2="16.503" y2="10.9965" gradientUnits="userSpaceOnUse">
<stop stop-color="#FFD945"/>
<stop offset="0.3043" stop-color="#FFCD3E"/>
<stop offset="0.8558" stop-color="#FFAD2B"/>
<stop offset="1" stop-color="#FFA325"/>
</linearGradient>
<linearGradient id="paint6_linear_1_298" x1="15.7111" y1="9.91879" x2="14.1044" y2="7.39352" gradientUnits="userSpaceOnUse">
<stop stop-color="#FFD945" stop-opacity="0"/>
<stop offset="1" stop-color="#FBED21"/>
</linearGradient>
<linearGradient id="paint7_linear_1_298" x1="15.6104" y1="10.2444" x2="17.8094" y2="6.01371" gradientUnits="userSpaceOnUse">
<stop stop-color="#F35227" stop-opacity="0"/>
<stop offset="1" stop-color="#F35227"/>
</linearGradient>
<linearGradient id="paint8_linear_1_298" x1="10.2754" y1="11.1865" x2="11.8134" y2="13.3434" gradientUnits="userSpaceOnUse">
<stop stop-color="#FFD945"/>
<stop offset="0.3043" stop-color="#FFCD3E"/>
<stop offset="0.8558" stop-color="#FFAD2B"/>
<stop offset="1" stop-color="#FFA325"/>
</linearGradient>
<linearGradient id="paint9_linear_1_298" x1="11.0215" y1="12.2656" x2="9.41476" y2="9.74032" gradientUnits="userSpaceOnUse">
<stop stop-color="#FFD945" stop-opacity="0"/>
<stop offset="1" stop-color="#FBED21"/>
</linearGradient>
<linearGradient id="paint10_linear_1_298" x1="10.9223" y1="12.5908" x2="13.1212" y2="8.36013" gradientUnits="userSpaceOnUse">
<stop stop-color="#F35227" stop-opacity="0"/>
<stop offset="1" stop-color="#F35227"/>
</linearGradient>
<linearGradient id="paint11_linear_1_298" x1="19.653" y1="11.1898" x2="21.191" y2="13.3467" gradientUnits="userSpaceOnUse">
<stop stop-color="#FFD945"/>
<stop offset="0.3043" stop-color="#FFCD3E"/>
<stop offset="0.8558" stop-color="#FFAD2B"/>
<stop offset="1" stop-color="#FFA325"/>
</linearGradient>
<linearGradient id="paint12_linear_1_298" x1="20.3993" y1="12.2689" x2="18.7925" y2="9.74364" gradientUnits="userSpaceOnUse">
<stop stop-color="#FFD945" stop-opacity="0"/>
<stop offset="1" stop-color="#FBED21"/>
</linearGradient>
<linearGradient id="paint13_linear_1_298" x1="20.2975" y1="12.5936" x2="22.4964" y2="8.36298" gradientUnits="userSpaceOnUse">
<stop stop-color="#F35227" stop-opacity="0"/>
<stop offset="1" stop-color="#F35227"/>
</linearGradient>
<linearGradient id="paint14_linear_1_298" x1="5.54255" y1="13.7494" x2="7.08055" y2="15.9063" gradientUnits="userSpaceOnUse">
<stop stop-color="#FFD945"/>
<stop offset="0.3043" stop-color="#FFCD3E"/>
<stop offset="0.8558" stop-color="#FFAD2B"/>
<stop offset="1" stop-color="#FFA325"/>
</linearGradient>
<linearGradient id="paint15_linear_1_298" x1="6.28859" y1="14.8287" x2="4.68185" y2="12.3034" gradientUnits="userSpaceOnUse">
<stop stop-color="#FFD945" stop-opacity="0"/>
<stop offset="1" stop-color="#FBED21"/>
</linearGradient>
<linearGradient id="paint16_linear_1_298" x1="6.19083" y1="15.1542" x2="8.38975" y2="10.9236" gradientUnits="userSpaceOnUse">
<stop stop-color="#F35227" stop-opacity="0"/>
<stop offset="1" stop-color="#F35227"/>
</linearGradient>
<linearGradient id="paint17_linear_1_298" x1="24.3845" y1="13.7562" x2="25.9225" y2="15.9131" gradientUnits="userSpaceOnUse">
<stop stop-color="#FFD945"/>
<stop offset="0.3043" stop-color="#FFCD3E"/>
<stop offset="0.8558" stop-color="#FFAD2B"/>
<stop offset="1" stop-color="#FFA325"/>
</linearGradient>
<linearGradient id="paint18_linear_1_298" x1="25.1306" y1="14.8355" x2="23.5239" y2="12.3102" gradientUnits="userSpaceOnUse">
<stop stop-color="#FFD945" stop-opacity="0"/>
<stop offset="1" stop-color="#FBED21"/>
</linearGradient>
<linearGradient id="paint19_linear_1_298" x1="25.0276" y1="15.1601" x2="27.2266" y2="10.9294" gradientUnits="userSpaceOnUse">
<stop stop-color="#F35227" stop-opacity="0"/>
<stop offset="1" stop-color="#F35227"/>
</linearGradient>
<linearGradient id="paint20_linear_1_298" x1="17.3839" y1="18.2927" x2="10.9489" y2="11.8578" gradientUnits="userSpaceOnUse">
<stop stop-color="#FFD945"/>
<stop offset="0.3043" stop-color="#FFCD3E"/>
<stop offset="0.8558" stop-color="#FFAD2B"/>
<stop offset="1" stop-color="#FFA325"/>
</linearGradient>
<linearGradient id="paint21_linear_1_298" x1="14.4433" y1="15.6244" x2="17.1718" y2="17.6883" gradientUnits="userSpaceOnUse">
<stop stop-color="#FF7044"/>
<stop offset="1" stop-color="#F82814"/>
</linearGradient>
<linearGradient id="paint22_linear_1_298" x1="15.6845" y1="16.5719" x2="13.2603" y2="11.6002" gradientUnits="userSpaceOnUse">
<stop stop-color="#FF7044" stop-opacity="0"/>
<stop offset="1" stop-color="#FFA325"/>
</linearGradient>
<linearGradient id="paint23_linear_1_298" x1="15.7317" y1="16.4647" x2="13.7555" y2="13.2376" gradientUnits="userSpaceOnUse">
<stop stop-color="#F82814" stop-opacity="0"/>
<stop offset="1" stop-color="#C0272D"/>
</linearGradient>
<linearGradient id="paint24_linear_1_298" x1="15.9165" y1="17.1023" x2="14.4857" y2="14.7657" gradientUnits="userSpaceOnUse">
<stop stop-color="#F82814" stop-opacity="0"/>
<stop offset="1" stop-color="#C0272D"/>
</linearGradient>
</defs>
</svg>
