<svg width="20" height="20" viewBox="0 0 20 20" fill="none" xmlns="http://www.w3.org/2000/svg">
<path d="M10 0.479167C4.64844 0.479167 0.3125 4.8151 0.3125 10.1667C0.3125 15.5182 4.64844 19.8542 10 19.8542C15.3516 19.8542 19.6875 15.5182 19.6875 10.1667C19.6875 4.8151 15.3516 0.479167 10 0.479167ZM10 18.6042C5.35156 18.6042 1.5625 14.8542 1.5625 10.1667C1.5625 5.55729 5.3125 1.72917 10 1.72917C14.6094 1.72917 18.4375 5.51823 18.4375 10.1667C18.4375 14.8151 14.6484 18.6042 10 18.6042ZM13.6719 7.47135C13.8672 7.27604 13.8672 7.0026 13.6719 6.80729L13.3594 6.49479C13.1641 6.29948 12.8906 6.29948 12.6953 6.49479L10 9.1901L7.26562 6.49479C7.10938 6.29948 6.79688 6.29948 6.60156 6.49479L6.28906 6.80729C6.09375 7.0026 6.09375 7.27604 6.28906 7.47135L8.98438 10.1667L6.28906 12.901C6.09375 13.0573 6.09375 13.3698 6.28906 13.5651L6.60156 13.8776C6.79688 14.0729 7.10938 14.0729 7.26562 13.8776L10 11.1823L12.6953 13.8776C12.8906 14.0729 13.1641 14.0729 13.3594 13.8776L13.6719 13.5651C13.8672 13.3698 13.8672 13.0573 13.6719 12.901L10.9766 10.1667L13.6719 7.47135Z" fill="#F2545D"/>
</svg>
